<svg xmlns="http://www.w3.org/2000/svg" viewBox="0 0 415.45 113.61"><g id="humanizing_technology" data-name="humanizing technology"><path d="M11.86,70a2.39,2.39,0,0,1,1-.16h.08a1.09,1.09,0,0,1,.88.79,3.74,3.74,0,0,1-.68,2.12,5.84,5.84,0,0,1-1.25,2.32l-.45.53C9.82,78.26,8,81.06,6.16,83.68c-.39.57-.86,1.15-1.2,1.72l-.6,1c-.32.74-.63,1.36-.42,1.5a6.73,6.73,0,0,0,1.41-.66c.84-.42,2.59-1.54,2.75-1.65.89-.55,2.17-1.3,3.74-2.17a6,6,0,0,1,1.83-.73c1.07-.18,1.88.1,2,1A4,4,0,0,1,15,85.74a8.15,8.15,0,0,0-.92,3.3,1.37,1.37,0,0,0,.11.6c.15.39,1.2.58,1.88.55a23.87,23.87,0,0,0,3.24-.37,11.46,11.46,0,0,0,2.2-.65c.52-.24.94-.5,1.39-.73.6-.32,1-.21.52.26a11.81,11.81,0,0,1-2.9,1.88,18.78,18.78,0,0,1-5.44,1.73,3.34,3.34,0,0,1-2.46-.89c-1.05-1-.37-3.3.6-5.18.34-.68.65-1.07.34-1.1a5.39,5.39,0,0,0-3.45.81,20.12,20.12,0,0,0-3.22,2.12c-.86.63-2,1.54-2.59,2a13.22,13.22,0,0,1-2.59,2c-.68.26-1.62-.11-1.72-.66A4.33,4.33,0,0,1,.93,89c.6-1,1.28-1.83,2-2.85,1-1.52,1.89-2.54,2.75-3.9,1.1-1.75,2.17-3.84,3.37-5.86.47-.73,1.05-2.25,1.47-3s.31-2,.68-2.78A1.22,1.22,0,0,1,11.86,70Z" transform="translate(0 0)" fill="#225560"/><path d="M24.52,86.11a.89.89,0,0,1,.11-.23,1.78,1.78,0,0,1,0-1,4.6,4.6,0,0,1,1.68-1.49s0,0,.05,0a1.54,1.54,0,0,1,.36-.28,1.8,1.8,0,0,1,1.49-.19.92.92,0,0,1,.5,1.34c-.29.42-.31.28-.68.7a9.52,9.52,0,0,1-.81.63,11,11,0,0,0-1.31,1.36,5.26,5.26,0,0,0-.55,1,1.92,1.92,0,0,0-.31.94c-.08.39,0,.71.47.73a2.8,2.8,0,0,0,1,.08,10.75,10.75,0,0,0,2.9-1.07,44.33,44.33,0,0,0,5.65-3.22A19.17,19.17,0,0,0,37,84a7.6,7.6,0,0,1,1-.79,2.18,2.18,0,0,1,2,.26,1.37,1.37,0,0,1,.23,1.73,5.92,5.92,0,0,0-.84,1.1A9.25,9.25,0,0,0,38,89.2c0,.6.32.81.81.91a2.53,2.53,0,0,0,.68.08,6.94,6.94,0,0,0,.92,0A9.93,9.93,0,0,0,43,89.43c.76-.29,2.93-1.28,3.64-1.67.23-.11.55-.47.76-.53l.31.21c.23.29.18.53-.11.79-.83.57-3.13,1.67-4.15,2.2-1.81.94-3.67,2-5.21,1.85a2.6,2.6,0,0,1-2-3,13,13,0,0,1,.84-3.22c.08-.26-.26-.26-.42-.2a7.28,7.28,0,0,0-1.85,1,48.2,48.2,0,0,1-4.9,3,31.08,31.08,0,0,1-4.23,1.91,4.6,4.6,0,0,1-2.3,0A1.5,1.5,0,0,1,22.45,90C22.64,88.65,23.92,87.1,24.52,86.11Z" transform="translate(0 0)" fill="#225560"/><path d="M59,89.75c1.31-1.13,7.59-6.78,9.32-6.54S70,84.54,69.4,86.14A18,18,0,0,0,68.82,89c0,1.59,1.44,1.8,2.59,1.78a9.49,9.49,0,0,0,3.93-1.26v0a.55.55,0,0,1,.18,0c.65,0,.71.42.18.7-1.91,1.08-4.18,2.54-5.93,2.28-2.07-.31-2.41-1.67-2.25-3.64,0-.57,0-1.46,0-2,0-.78-.21-1.36-.84-1.17a12.26,12.26,0,0,0-3.11,1.88c-2.22,1.72-5.15,4.5-6,4.71a1,1,0,0,1-.63.21,1.88,1.88,0,0,1-1-.32,6.91,6.91,0,0,1-.37-.7c-.18-1.36,2.67-5.18,2.43-6,0,0,0-.23-.23-.23a10,10,0,0,0-4.63,2.35L50.23,90l-1.41,1.2c-.68.52-2.8,2.33-3.9,1.41a1,1,0,0,1-.13-1.31,34.78,34.78,0,0,1,3.92-5.75c.37-.55.16-.76.47-1.36a1.09,1.09,0,0,1,.27-.55l.2-.21a2.05,2.05,0,0,1,1.83-.18,1.29,1.29,0,0,1,.84,1.23c-.86,1.85-2.3,2.38-3.58,4.13a12.46,12.46,0,0,0-.86,1.2l.23-.18,0,0c.89-.65,1.67-1.1,2.51-1.64,1.88-1.29,3.76-2.49,6-3.77.91-.52,2.87-2,4.08-1.6.26.16.28.24.36.53.34.55-.81,3-1.41,4.23-.34.68-1.15,2.46-.81,2.46Z" transform="translate(0 0)" fill="#225560"/><path d="M88.23,84.67a2.51,2.51,0,0,0-2.2-.52,11,11,0,0,0-1.85.65c-1.21.68-3,1.89-3.87,2.41-1.63.94-2.78,2.27-2.7,2.75a1.28,1.28,0,0,0,1.23,0c1.44-.6,3-1.15,4.24-1.73.81-.34,1.67-.65,2.54-1.07,1.43-.58,4.81-2.3,5.62-2.3.36,0,1,.42,1,.84,0,1.38-2,3.26-2,4.21,0,.36.29.6,1,.6a9.39,9.39,0,0,0,1.1-.11,20.91,20.91,0,0,0,6-2.25c.66-.1.74.37.21.74-1.57,1-6.93,4.73-9.49,3.06a1.81,1.81,0,0,1-.65-1.83,8.59,8.59,0,0,1,.83-2.62c.19-.63-.78-.5-1-.34s-1.21.39-2.17.84c-.47.21-1,.62-1.42.83-1.43.63-3.34,1.68-4.86,2.31a11.93,11.93,0,0,1-3.51,1A9.34,9.34,0,0,1,75.15,92a1.24,1.24,0,0,1-.78-1,2.69,2.69,0,0,1,.21-1,8.49,8.49,0,0,1,1.65-2.17,24.23,24.23,0,0,1,3.08-2.35,29.24,29.24,0,0,1,4.34-2.15c1.36-.52,2.17-.57,2.67-.81a9.89,9.89,0,0,1,2-.21,1.4,1.4,0,0,1,1.34.47l.42.45C90.43,84.46,89.25,85.61,88.23,84.67Z" transform="translate(0 0)" fill="#225560"/><path d="M101.41,83.7a2.75,2.75,0,0,1,1.39-1,1.06,1.06,0,0,1,1.57,1.1c-.4,1.2-2.41,3.08-3.22,4.13-.26.32-.37.58-.26.6a.75.75,0,0,0,.65-.08c.45-.2,1.07-.54,1.26-.65.83-.5,3-1.86,5.18-3.11s3.74-1.91,4.78-1.78c1.73.21,1.68,1.44,1.39,3a20.8,20.8,0,0,0-.29,2.44c0,1.36,1.23,1.93,2.43,1.93A11.72,11.72,0,0,0,120.84,89v0a.42.42,0,0,1,.19,0c.73-.05.76.42.15.76-2.09,1.1-4.57,2.57-6.43,2.41a2.83,2.83,0,0,1-2.48-2.54,10.28,10.28,0,0,1,0-2.35,4.3,4.3,0,0,0-.05-1.2,1.16,1.16,0,0,0-.45-.63,1.22,1.22,0,0,0-.94-.24,11.81,11.81,0,0,0-3.45,1.21c-1.36.73-2.69,1.75-3.79,2.43-.92.57-2.41,1.88-3.27,2.33a5.58,5.58,0,0,1-1.39.62,1.1,1.1,0,0,1-.62.11,1.32,1.32,0,0,1-1.26-1,3.61,3.61,0,0,1,1-2.14c.29-.4.63-.92.89-1.26.5-.73,1-1.41,1.44-1.91.76-1.12.58-1.18.94-1.7.06,0,.06-.1.08-.13Z" transform="translate(0 0)" fill="#225560"/><path d="M121.92,87.08A20.62,20.62,0,0,1,123.56,84,3,3,0,0,1,126,82.71a1.11,1.11,0,0,1,1,.76c.18.42-.16.78-.45,1.07a6.18,6.18,0,0,1-1.2.92,7.64,7.64,0,0,1-.79.65,4.65,4.65,0,0,0-1,1.36,2.43,2.43,0,0,0-.34,2c.26,1.15,1.67,1,2.53.84a44.54,44.54,0,0,0,5-1.15,18.5,18.5,0,0,0,3.16-1.44c.53-.11,1,0,.68.39-2.56,1.67-6.12,3.66-9.41,4.11-1.52.21-3.4,0-3.93-1.6C120.82,89.54,121.29,88.41,121.92,87.08Zm9.23-13.58c.31.19.6.37.13,1.08a5.05,5.05,0,0,1-2.09,1.91c-.06,0-1.05.39-1.57-.11-.19-.18-.08-.55-.19-.76-.28-.86,1.08-1.36,2.1-1.78.39-.18.28-.07.52-.18A1.75,1.75,0,0,1,131.15,73.5Z" transform="translate(0 0)" fill="#225560"/><path d="M138.76,86.4a12.57,12.57,0,0,0-1.18.83,3.81,3.81,0,0,0-.86.89l-.13.34v.34c0,.16.29.13.39.24a.78.78,0,0,1,.13.89,1.13,1.13,0,0,1-.5.5c-1,.39-2.19.83-3-.16a1.5,1.5,0,0,1-.39-.81c.05-.73-.08-.5.23-1.18.4-.94.34-.71,1.05-1.49.92-1,.71-.57,1.86-1.31a18.15,18.15,0,0,1,4.21-2,36.23,36.23,0,0,1,5.25-1.63c1.6-.36,4.14-.18,5.18.79a1.82,1.82,0,0,1,.4,2.43,4,4,0,0,1-1.86,1.36,32.24,32.24,0,0,0-3.32,1.67,11.48,11.48,0,0,0-1.31,1c-.32.21-.65.58-.94.79a2.25,2.25,0,0,0-.79,2.22,3.08,3.08,0,0,0,.19.66,10.07,10.07,0,0,0,.91,1.43l.16.32a9.22,9.22,0,0,1,.81-.5c1.1-.63,2.17-1.62,3.66-2.59a41.7,41.7,0,0,1,4.55-2.54,4.09,4.09,0,0,1,2.69-.67c.14.1.21.15.24.33.08.42-.31.68-.65,1a18.87,18.87,0,0,1-2.25.36c-.29.13-.71.32-1.44.71a47,47,0,0,0-5.13,3.5c-.68.5-1.36,1-2,1.6a6,6,0,0,1,.23,1.31,5.64,5.64,0,0,1-.81,2.4,25.29,25.29,0,0,1-2.17,3,42.61,42.61,0,0,1-7.76,7.59,19.64,19.64,0,0,1-2.7,2.09L130,113c-1.46.6-2.32-.13-2.14-1.51a10.87,10.87,0,0,1,1.54-2.72,29.1,29.1,0,0,1,2.36-2.93c.89-.92,2.59-2.64,3.53-3.51,1.1-1,3.21-3.08,4.42-3.92,1.44-1.05,2.25-1.94,3.27-2.8-.32-.68-.87-.89-1.42-1.41a3.63,3.63,0,0,1-1.15-1.7,1.16,1.16,0,0,1,.06-1,3.62,3.62,0,0,1,1-1.49l.41-.39a2.22,2.22,0,0,0,.27-.19,31.35,31.35,0,0,1,4-2.74A12.75,12.75,0,0,0,148.33,85c.29-.27,1.07-1.26.6-1.65a1.63,1.63,0,0,0-1.7-.42,36.48,36.48,0,0,0-4.84,1.65A17.66,17.66,0,0,0,138.76,86.4ZM143.34,97l-.84.71c-2.28,1.91-3,2.59-4.92,4.24-.29.23-3.58,3.89-4.86,5.46-1.13,1.39-2,2.23-1.78,3h.1a5,5,0,0,0,2.44-1.44C136.51,106.61,142.32,100.78,143.34,97Z" transform="translate(0 0)" fill="#225560"/><path d="M155.71,87.08A20.62,20.62,0,0,1,157.35,84a3,3,0,0,1,2.41-1.28,1.11,1.11,0,0,1,1.05.76c.18.42-.16.78-.45,1.07a6.18,6.18,0,0,1-1.2.92,7.64,7.64,0,0,1-.79.65,4.65,4.65,0,0,0-1,1.36,2.43,2.43,0,0,0-.34,2c.26,1.15,1.67,1,2.53.84a44.54,44.54,0,0,0,4.95-1.15,18.5,18.5,0,0,0,3.16-1.44c.53-.11,1.05,0,.68.39-2.56,1.67-6.12,3.66-9.41,4.11-1.52.21-3.4,0-3.93-1.6C154.61,89.54,155.08,88.41,155.71,87.08Zm9.23-13.58c.31.19.6.37.13,1.08A5.05,5.05,0,0,1,163,76.49c-.06,0-1,.39-1.57-.11-.19-.18-.08-.55-.19-.76-.28-.86,1.08-1.36,2.1-1.78.39-.18.28-.07.52-.18A1.75,1.75,0,0,1,164.94,73.5Z" transform="translate(0 0)" fill="#225560"/><path d="M170.3,83.7a2.71,2.71,0,0,1,1.39-1,1.07,1.07,0,0,1,1.57,1.1c-.4,1.2-2.41,3.08-3.22,4.13-.26.32-.37.58-.26.6a.75.75,0,0,0,.65-.08c.44-.2,1.07-.54,1.26-.65.83-.5,3-1.86,5.17-3.11s3.74-1.91,4.79-1.78c1.73.21,1.67,1.44,1.39,3a18.86,18.86,0,0,0-.29,2.44c0,1.36,1.23,1.93,2.43,1.93A11.72,11.72,0,0,0,189.73,89v0a.4.4,0,0,1,.19,0c.73-.05.75.42.15.76-2.09,1.1-4.57,2.57-6.43,2.41a2.84,2.84,0,0,1-2.49-2.54,10.9,10.9,0,0,1,0-2.35,4.3,4.3,0,0,0-.05-1.2,1.16,1.16,0,0,0-.45-.63,1.22,1.22,0,0,0-.94-.24,11.81,11.81,0,0,0-3.45,1.21c-1.36.73-2.69,1.75-3.79,2.43-.92.57-2.41,1.88-3.27,2.33a5.58,5.58,0,0,1-1.39.62,1.11,1.11,0,0,1-.63.11,1.32,1.32,0,0,1-1.25-1,3.61,3.61,0,0,1,1-2.14c.29-.4.63-.92.89-1.26.5-.73,1-1.41,1.44-1.91.76-1.12.58-1.18.94-1.7.05,0,.05-.1.08-.13Z" transform="translate(0 0)" fill="#225560"/><path d="M209.61,90.27a11.66,11.66,0,0,0-2,1.12l-2.51,2a76.31,76.31,0,0,1-10,13c-.78.94-1.64,1.88-2.56,2.82-.13.11-4.05,4.81-5.44,4.29-.34-.1-.42-.44-.37-.86a7.1,7.1,0,0,1,.42-2c.39-.89.58-1.44,3.69-5.29a82.3,82.3,0,0,1,7-7.11c1.28-1.15,2.59-2.22,4-3.32l1.33-1.1a17.47,17.47,0,0,0,2.23-5.28c.1-.55-1.05-1.21-1.26-1.15s-.73.07-1,.13a9.11,9.11,0,0,0-2.14.68c-1.13.49-3.11,1.2-5,2a23.48,23.48,0,0,1-3.58,1.31c-1.16.26-2.23.52-2.91.15a1.41,1.41,0,0,1-.68-1.41c0-.6.53-1.18,1.31-2a22.56,22.56,0,0,1,7.27-4.55c2.56-1,3.74-1.36,5.1-1.81a11.8,11.8,0,0,1,2.85,0c.37.08.42.18.55.49l.13,1.21a1,1,0,0,1-.6,1.1,1.55,1.55,0,0,1-1.6,0c-.44-.42-1.7-1.21-2.66-.74s-1.31.27-3,1.08A22.88,22.88,0,0,0,193.52,88a7.19,7.19,0,0,0-1,.94,2.3,2.3,0,0,0-.37.57c-.05.13-.1.27.31.29a5,5,0,0,0,1.47-.16c.65-.13.81-.2,1.59-.41a27.52,27.52,0,0,0,3.82-1.36c1.31-.55,2.46-1,4.13-1.52,1.31-.5,3.82-1.07,4.37.44.34,1-.68,3-1.54,4.45l1-.58a27.28,27.28,0,0,1,3.25-1.7,9.4,9.4,0,0,1,1.62-.83,16.91,16.91,0,0,1,1.75-.76,1.46,1.46,0,0,1,.44,0c.34,0,.89.47.87.86a1,1,0,0,1-.53.68c-.47.26-.78,0-1.43.29a11,11,0,0,1-1.15.13c-.32.1-.68.18-1,.29a4.74,4.74,0,0,0-.63.26C210.13,90,210,90.06,209.61,90.27Zm-7.9,5.88-.34.32a98,98,0,0,0-8.74,9.28c-1.56,1.86-1.77,2.83-1.8,3.11,2.09-2,1.23-.81,3.09-3A85.77,85.77,0,0,0,201.71,96.15Z" transform="translate(0 0)" fill="#225560"/><path d="M229.15,76.28c1.2-.06,2.38-.13,3.58-.24.5-.68,1.07-1.54,1.67-2.43a1.67,1.67,0,0,1,.24-.65l.5-.84c.31-1.28.23-2.38.88-2.64a4.6,4.6,0,0,1,1.08-.34,1.22,1.22,0,0,1,1.59,1.28,26.23,26.23,0,0,1-3.53,5.44c2.59-.21,5.18-.42,7.77-.5a21.9,21.9,0,0,1,3.66.08,10.45,10.45,0,0,1,1.2.13c1.94.39,5.68.84,5.81,3.16,0,.55-1.91-.36-2-.91,0-.21,0-.31,0-.34a.8.8,0,0,1-.29-.1,12,12,0,0,0-3.09-.66,8.16,8.16,0,0,0-1-.1c-1.38-.29-6.51.23-6.59.23-2.22.21-4.42.37-6.62.58-1.36,1.85-3.19,4.13-4.6,6.43A25.08,25.08,0,0,0,228,86.37a6.84,6.84,0,0,0-.71,2.49c0,.94.55,1.23,1.59,1.28a8.54,8.54,0,0,0,2.33-.21c.76-.16,2-.5,3.56-1,.81-.26,2.59-1,4.08-1.7.47-.37.78-.23.55.29a19.56,19.56,0,0,1-3.4,2.17,25.22,25.22,0,0,1-4.74,2.14,9.34,9.34,0,0,1-2.92.5,2.75,2.75,0,0,1-2-.78,3.32,3.32,0,0,1-.48-2.91,23.36,23.36,0,0,1,2.91-6.43c.94-1.6,2-3.22,2.93-4.6h0a26.3,26.3,0,0,1-3.82.49,8.4,8.4,0,0,1-4.16.06,1,1,0,0,1-1-.89v-.08a1.89,1.89,0,0,1,1.62-1.36c.89,0,3.56.39,4.45.39A1.29,1.29,0,0,1,229.15,76.28Z" transform="translate(0 0)" fill="#225560"/><path d="M241.31,88.41a.44.44,0,0,1-.4-.23l-.36.31a3.27,3.27,0,0,0-.6.81,1,1,0,0,0-.13.58c0,.23.28.36.54.49s1,.47,3.43.24a17.62,17.62,0,0,0,3.82-.47,48.49,48.49,0,0,0,4.73-1.41c.74-.24,1.39-.42,2.17-.68a6.75,6.75,0,0,0,1.86-.79c.26-.21.92-.23.73.26-.13.32-.89.58-1.59.89-1.13.52-2.41,1.07-2.91,1.23-1.33.5-2.58.89-4.08,1.36s-2.53.76-3.87,1c-.44.08-1.28.27-1.83.32a20.6,20.6,0,0,1-3.5.13,2.69,2.69,0,0,1-1-.24c-.37-.13-.39-.26-.66-.41a1.6,1.6,0,0,1-.7-1.42A2.38,2.38,0,0,1,237.2,89a8.42,8.42,0,0,1,1.1-1.36,12.78,12.78,0,0,1,1.86-1.46c1-.63,1.3-.84,1.83-1.13s1.12-.47,2.38-1.07a15.61,15.61,0,0,1,4.6-1.57l1-.21c.6-.08,2.85-.13,2.95.91,0,.37-.1.66-.65,1.13a7.07,7.07,0,0,1-1.46,1,48.86,48.86,0,0,1-5,2.07c-.29.1-.68.23-1.18.36a8.48,8.48,0,0,1-1,.42C243.06,88.39,241.91,88.8,241.31,88.41Zm1-1.46h.11c.21,0,.6,0,1-.06s.34,0,.57,0l.58-.11.6-.18a6.76,6.76,0,0,0,.91-.31,23.61,23.61,0,0,0,3.59-1.83c.34-.26.05-.42,0-.45a1.73,1.73,0,0,0-.6-.13,5.57,5.57,0,0,0-2.09.55c-.21.1-.63.34-.89.47l-1,.47a21.23,21.23,0,0,0-2.25,1.26A5.82,5.82,0,0,0,242.35,87Z" transform="translate(0 0)" fill="#225560"/><path d="M268.43,85.17s-.08,0-.13,0a2.87,2.87,0,0,1-2.38-.44,6.31,6.31,0,0,0-1.44.16l-.63.23c-.52.21-2,.34-2.51.58a11.36,11.36,0,0,0-1.94,1.12A15.83,15.83,0,0,0,258,88a2.37,2.37,0,0,0-.5.89,2.68,2.68,0,0,0-.08.86c-.05.31,1,.6,1.36.65a15,15,0,0,0,2.83-.15A57.32,57.32,0,0,0,270.39,88c1.46-.5,1.78-.71,3.19-1.23.71-.26,1.28.1.58.57a18.31,18.31,0,0,1-3.4,1.42,46,46,0,0,1-5.55,2A63.15,63.15,0,0,1,258,92.18c-.7,0-3,.13-3.19-1.18a7.7,7.7,0,0,1,0-1.28,2.13,2.13,0,0,1,.45-1.13c.26-.36.81-.91,1.2-1.33a16.15,16.15,0,0,1,4.63-3,47.33,47.33,0,0,1,7-2.2,4,4,0,0,1,1.46.1,1,1,0,0,1,.81.89l-.05.76,0,.19a7.12,7.12,0,0,1-.7.47,3.32,3.32,0,0,1-1.13.73Z" transform="translate(0 0)" fill="#225560"/><path d="M282.76,70a2.37,2.37,0,0,1,1-.16h.08a1.1,1.1,0,0,1,.89.79,3.74,3.74,0,0,1-.68,2.12,6,6,0,0,1-1.25,2.32l-.45.53c-1.62,2.66-3.45,5.46-5.28,8.08-.39.57-.87,1.15-1.21,1.72l-.6,1c-.31.74-.62,1.36-.41,1.5a7.27,7.27,0,0,0,1.41-.66c.83-.42,2.59-1.54,2.74-1.65.89-.55,2.17-1.3,3.74-2.17a6.15,6.15,0,0,1,1.83-.73c1.08-.18,1.89.1,2,1a3.93,3.93,0,0,1-.66,2.06A8.12,8.12,0,0,0,285,89a1.54,1.54,0,0,0,.1.6c.16.39,1.21.58,1.89.55a24.06,24.06,0,0,0,3.24-.37,11.46,11.46,0,0,0,2.2-.65c.52-.24.94-.5,1.38-.73.6-.32,1-.21.53.26a12.08,12.08,0,0,1-2.91,1.88A18.78,18.78,0,0,1,286,92.31a3.35,3.35,0,0,1-2.46-.89c-1-1-.36-3.3.61-5.18.34-.68.65-1.07.34-1.1A5.41,5.41,0,0,0,281,86a20.38,20.38,0,0,0-3.21,2.12c-.87.63-2,1.54-2.59,2a13.22,13.22,0,0,1-2.59,2c-.68.26-1.62-.11-1.73-.66a4.36,4.36,0,0,1,.92-2.35c.6-1,1.28-1.83,2-2.85,1-1.52,1.88-2.54,2.75-3.9,1.09-1.75,2.17-3.84,3.37-5.86.47-.73,1-2.25,1.46-3s.32-2,.68-2.78A1.22,1.22,0,0,1,282.76,70Z" transform="translate(0 0)" fill="#225560"/><path d="M297,83.7a2.75,2.75,0,0,1,1.39-1,1.06,1.06,0,0,1,1.57,1.1c-.39,1.2-2.41,3.08-3.22,4.13-.26.32-.36.58-.26.6a.75.75,0,0,0,.65-.08c.45-.2,1.08-.54,1.26-.65.84-.5,3-1.86,5.18-3.11s3.74-1.91,4.78-1.78c1.73.21,1.68,1.44,1.39,3a20.8,20.8,0,0,0-.29,2.44c0,1.36,1.23,1.93,2.43,1.93A11.82,11.82,0,0,0,316.45,89v0a.38.38,0,0,1,.18,0c.73-.05.76.42.16.76-2.1,1.1-4.58,2.57-6.44,2.41a2.83,2.83,0,0,1-2.48-2.54,10.28,10.28,0,0,1,0-2.35,4,4,0,0,0-.05-1.2,1.19,1.19,0,0,0-.44-.63,1.26,1.26,0,0,0-.95-.24A11.81,11.81,0,0,0,303,86.35c-1.36.73-2.69,1.75-3.79,2.43-.92.57-2.41,1.88-3.27,2.33a5.68,5.68,0,0,1-1.38.62,1.13,1.13,0,0,1-.63.11,1.32,1.32,0,0,1-1.26-1,3.58,3.58,0,0,1,1-2.14c.28-.4.62-.92.89-1.26A23.09,23.09,0,0,1,296,85.56c.76-1.12.58-1.18.95-1.7.05,0,.05-.1.07-.13Z" transform="translate(0 0)" fill="#225560"/><path d="M320,85.25a17,17,0,0,1,2.27-1.31c-.08-.42.73-1.18,1.34-1.39.26-.08,1.54-.21,1.85-.26a3.5,3.5,0,0,1,.37-.05,6.66,6.66,0,0,1,.76-.13,60.29,60.29,0,0,1,10,.5,8.52,8.52,0,0,1,3.35.91c.71.29,1.2,1.18.18,1.49-.47.11-.57-.08-.91-.08a1.22,1.22,0,0,1-1-1.12.1.1,0,0,0-.08,0c-.5-.13-1-.34-1.47-.42a14.51,14.51,0,0,0-2.09,0c-1,0-2.09-.08-3.16-.08a1.7,1.7,0,0,1,.89,1.36c0,1.65-2,3.09-3.59,3.95-.55.31-1.1.7-1.7,1-.39.19-1,.42-1.46.58a27,27,0,0,1-3.24,1,17.26,17.26,0,0,1-3.64.71,3.17,3.17,0,0,1-1.7-.29,1.42,1.42,0,0,1-.76-1.67,5.36,5.36,0,0,1,.84-1.67A10.15,10.15,0,0,1,320,85.25Zm8-1.55c-1.2.37-2.62,1.23-3.27,1.31a4.68,4.68,0,0,1-1.36-.16c-.44.29-.89.58-1.36,1a10,10,0,0,0-1.15.94,12.3,12.3,0,0,0-.81,1,5.63,5.63,0,0,0-.79,1.44.69.69,0,0,0,0,.52c.16.27.89.24,1.75.11a19.23,19.23,0,0,0,2-.34c.6-.16,1.86-.71,2.12-.81a22.52,22.52,0,0,0,2.77-1.08,14.59,14.59,0,0,0,1.73-1.09,2.94,2.94,0,0,0,1.44-1.94C331.14,83.76,329.31,83.68,328,83.7Z" transform="translate(0 0)" fill="#225560"/><path d="M338.52,85.59c1.33-2.28,3.14-5.68,5.52-9.16l.84-1.17a8.41,8.41,0,0,1,.7-1.18c.31-.52.76-1.44,1.28-2.22A5.46,5.46,0,0,1,348.2,70a1.44,1.44,0,0,1,.31-.63,1.74,1.74,0,0,1,.76-.36,1.37,1.37,0,0,1,1.07.6s0,.1.05.13a1,1,0,0,1,.19,1.1c-.06.15,0,.34-.08.55a4.22,4.22,0,0,1-.63.73L348,74.26l-.11.11c-.81,1-1.62,2-1.93,2.35a49.35,49.35,0,0,0-3.3,4.6,58.89,58.89,0,0,0-3.89,6.62,4.79,4.79,0,0,0-.55,2.12c.05.63,1,.71,1.46.68a13.06,13.06,0,0,0,2.22-.37,26.63,26.63,0,0,0,4.48-1.67c1.17-.6,2.4-1,3.66-1.7.6-.29,1,0,.44.39-1,.71-3,2-5.05,3.17a17.17,17.17,0,0,1-6.3,2.27c-1.54.08-3-.36-2.8-2.14A20.18,20.18,0,0,1,338.52,85.59Z" transform="translate(0 0)" fill="#225560"/><path d="M351.67,85.25A17.72,17.72,0,0,1,354,83.94c-.08-.42.73-1.18,1.33-1.39.27-.08,1.55-.21,1.86-.26a3.5,3.5,0,0,1,.37-.05,6.66,6.66,0,0,1,.76-.13,60.29,60.29,0,0,1,10,.5,8.61,8.61,0,0,1,3.35.91c.7.29,1.2,1.18.18,1.49-.47.11-.57-.08-.91-.08a1.24,1.24,0,0,1-1-1.12.07.07,0,0,0-.07,0c-.5-.13-1-.34-1.47-.42a14.51,14.51,0,0,0-2.09,0c-1,0-2.09-.08-3.17-.08a1.68,1.68,0,0,1,.89,1.36c0,1.65-2,3.09-3.58,3.95-.55.31-1.1.7-1.7,1-.39.19-1,.42-1.46.58a26.55,26.55,0,0,1-3.25,1,17,17,0,0,1-3.63.71,3.17,3.17,0,0,1-1.7-.29,1.42,1.42,0,0,1-.76-1.67,5.36,5.36,0,0,1,.84-1.67A10.23,10.23,0,0,1,351.67,85.25Zm8-1.55c-1.21.37-2.62,1.23-3.27,1.31a4.68,4.68,0,0,1-1.36-.16c-.45.29-.89.58-1.36,1a10,10,0,0,0-1.15.94,12.3,12.3,0,0,0-.81,1,5.33,5.33,0,0,0-.79,1.44.69.69,0,0,0,0,.52c.16.27.89.24,1.75.11.65-.11,1.33-.16,2-.34s1.85-.71,2.12-.81a23.15,23.15,0,0,0,2.77-1.08,14.59,14.59,0,0,0,1.73-1.09,2.9,2.9,0,0,0,1.43-1.94C362.84,83.76,361,83.68,359.68,83.7Z" transform="translate(0 0)" fill="#225560"/><path d="M386.2,90.27a11.66,11.66,0,0,0-2,1.12l-2.51,2a76.31,76.31,0,0,1-10,13c-.78.94-1.64,1.88-2.56,2.82-.13.11-4.05,4.81-5.44,4.29-.34-.1-.42-.44-.37-.86a7.1,7.1,0,0,1,.42-2c.39-.89.58-1.44,3.69-5.29a82.3,82.3,0,0,1,7-7.11c1.28-1.15,2.59-2.22,4-3.32l1.33-1.1A17.47,17.47,0,0,0,382,88.65c.1-.55-1.05-1.21-1.26-1.15-.36.1-.73.07-1,.13a9.11,9.11,0,0,0-2.14.68c-1.13.49-3.11,1.2-5,2A23.48,23.48,0,0,1,369,91.58c-1.16.26-2.23.52-2.91.15a1.41,1.41,0,0,1-.68-1.41c0-.6.53-1.18,1.31-2A22.56,22.56,0,0,1,374,83.76c2.56-1,3.74-1.36,5.1-1.81A11.8,11.8,0,0,1,382,82c.37.08.42.18.55.49l.13,1.21a1,1,0,0,1-.6,1.1,1.55,1.55,0,0,1-1.6,0c-.44-.42-1.7-1.21-2.66-.74s-1.31.27-3,1.08A22.88,22.88,0,0,0,370.11,88a7.19,7.19,0,0,0-1,.94,2.3,2.3,0,0,0-.37.57c0,.13-.1.27.31.29a5,5,0,0,0,1.47-.16c.65-.13.81-.2,1.59-.41A27.52,27.52,0,0,0,376,87.84c1.31-.55,2.46-1,4.13-1.52,1.31-.5,3.82-1.07,4.37.44.34,1-.68,3-1.54,4.45l1-.58a27.28,27.28,0,0,1,3.25-1.7,9.4,9.4,0,0,1,1.62-.83,16.91,16.91,0,0,1,1.75-.76,1.46,1.46,0,0,1,.44,0c.34,0,.89.47.87.86a1,1,0,0,1-.53.68c-.47.26-.78,0-1.43.29a10.92,10.92,0,0,1-1.16.13c-.31.1-.67.18-1,.29a4.74,4.74,0,0,0-.63.26C386.72,90,386.62,90.06,386.2,90.27Zm-7.9,5.88-.34.32a96.6,96.6,0,0,0-8.73,9.28c-1.57,1.86-1.78,2.83-1.81,3.11,2.09-2,1.23-.81,3.09-3A86.89,86.89,0,0,0,378.3,96.15Z" transform="translate(0 0)" fill="#225560"/><path d="M414.34,89.46a3.84,3.84,0,0,1-1.52.21c-.76.26-.36,0-1,.29l-.27.1c-1,.52-2,1-3.08,1.62-.26.21-.34.26-.42.26a14.71,14.71,0,0,0-2.09,1.47,45,45,0,0,1-5.36,8.47c-1.31,1.7-2.65,3.58-6.67,8.21-.29.34-3.3,3.61-4.58,3.14s.16-3.4.73-4.24,2.72-3.76,3.45-4.62A102.75,102.75,0,0,1,404,93.83a37.33,37.33,0,0,0,2.17-4.4,13.1,13.1,0,0,0,.57-2.61,1.28,1.28,0,0,0-.26-1.28c-.26-.4-.29-.5-.81-.45a6.1,6.1,0,0,0-1.07.13,7.68,7.68,0,0,0-1.52.6c-.78.45-2.2,1.31-3.58,2.2-1,.63-2.38,1.54-3.25,2.07a12.06,12.06,0,0,1-2.74,1.33c-1,.29-2.28.68-3.06,0a2.14,2.14,0,0,1-.6-2,8.44,8.44,0,0,1,1.12-2.69c.29-.5,1.31-2,1.6-2.51a5.86,5.86,0,0,1,1.1-1.29,1.28,1.28,0,0,1,1.54-.18,1.25,1.25,0,0,1,.42.65,3.66,3.66,0,0,1-.29,1.31c-.16.18-.37.37-.68.71-.47.57-1.26.86-1.47,1.15a5.84,5.84,0,0,0-1.07,1.91,1.21,1.21,0,0,0,.08,1c.08.18.44.18.65.13s.66-.29,1.13-.42c2.64-.71,6.35-3.3,10-5.15a9.71,9.71,0,0,1,3.61-1.18,1.59,1.59,0,0,1,1.54.94,4.31,4.31,0,0,1-.31,2.49c-.31,1.17-1.05,2.71-1.41,3.66-.21.55-.6,1.49-.81,2a11.26,11.26,0,0,1,1-.65,4.05,4.05,0,0,1,1.13-.68c.44-.26.81-.5,1.22-.71a14,14,0,0,1,1.39-.81c.92-.47,1.13-.76,2.2-1.23a2.06,2.06,0,0,1,.81-.29,1.81,1.81,0,0,1,.65,0c.79.18.42.94-.08,1.54ZM402.6,96.21a14.25,14.25,0,0,0-1.18,1.15c-1.05,1.09-2,2.53-3.14,3.63a32.85,32.85,0,0,0-5.44,7.74l.5-.49c.68-.74,1.75-1.76,2.64-2.72.73-.81,1.31-1.6,1.57-1.91A49.47,49.47,0,0,0,402.6,96.21Z" transform="translate(0 0)" fill="#225560"/></g><g id="MideaGroup"><path d="M6.09.87H18.62L31.88,38.73,45.35.87H57.81V50.38H48.63V13.27L35.84,50.38H28.06L15.27,13.27V50.38H6.09Z" transform="translate(0 0)" fill="#34364e"/><path d="M65.45.87h8.91V9H65.45Zm0,12.4h8.91V50.38H65.45Z" transform="translate(0 0)" fill="#34364e"/><path d="M119,50.38h-8.17v-5h-.14A12.17,12.17,0,0,1,105.55,50a16,16,0,0,1-6.8,1.64h-.4a16.79,16.79,0,0,1-7.51-1.68A18.69,18.69,0,0,1,85,45.43a21.22,21.22,0,0,1-3.69-6.23A19.94,19.94,0,0,1,79.92,32a21.39,21.39,0,0,1,1.27-7.27A19,19,0,0,1,90.64,14.1a17.39,17.39,0,0,1,7-1.91,2.27,2.27,0,0,1,.5-.06h1a16.94,16.94,0,0,1,6,1.4,13.58,13.58,0,0,1,4.92,3.62V.87H119Zm-8.31-18.62A10.36,10.36,0,0,0,107.39,24a10.87,10.87,0,0,0-7.84-3.18,10.2,10.2,0,0,0-7.5,3.25,10.36,10.36,0,0,0-3.22,7.53,11.41,11.41,0,0,0,3.08,8A10.14,10.14,0,0,0,99.69,43a10.44,10.44,0,0,0,7.8-3.29,10.86,10.86,0,0,0,3.18-7.84Z" transform="translate(0 0)" fill="#34364e"/><path d="M133.59,35.78A9.71,9.71,0,0,0,137.31,41a10.12,10.12,0,0,0,6.06,2,13.14,13.14,0,0,0,4.79-.87,8.71,8.71,0,0,0,3.52-2.35l9.85-.07a16.55,16.55,0,0,1-6.8,8.48,19.4,19.4,0,0,1-11,3.45,19,19,0,0,1-13.83-5.66,18.63,18.63,0,0,1-5.73-13.77A19.63,19.63,0,0,1,129.84,18a18.68,18.68,0,0,1,14-5.89A17.91,17.91,0,0,1,157.34,18a19.21,19.21,0,0,1,5.53,13.6,15.69,15.69,0,0,1-.1,1.7c-.07.56-.15,1.11-.24,1.64,0,.18-.08.33-.1.47a2.69,2.69,0,0,0,0,.4Zm20.3-7.91A9.61,9.61,0,0,0,150,22.71a11,11,0,0,0-6.23-1.87h-.53a11.93,11.93,0,0,0-6,2.09,9.06,9.06,0,0,0-3.76,4.94Z" transform="translate(0 0)" fill="#34364e"/><path d="M206.22,50.38H198v-5h-.13a13.1,13.1,0,0,1-4.42,4,18.33,18.33,0,0,1-5.7,2.08l-1.24.13a10.54,10.54,0,0,1-1.24.07A18.05,18.05,0,0,1,177.54,50a17.21,17.21,0,0,1-5.9-4.52,19.7,19.7,0,0,1-3.41-6.17A22.21,22.21,0,0,1,167,31.89a22.27,22.27,0,0,1,1.11-7.17,17.75,17.75,0,0,1,3.65-6.16A18.18,18.18,0,0,1,178,13.7a17.93,17.93,0,0,1,7.54-1.57,15.13,15.13,0,0,1,7,1.64A14.7,14.7,0,0,1,198,18.56V13.27h8.18Zm-8.45-18.62a11,11,0,0,0-3-7.81,9.91,9.91,0,0,0-7.74-3.11,10.29,10.29,0,0,0-8,3.21,11.42,11.42,0,0,0-3.12,8.18,10.21,10.21,0,0,0,3.25,7.67A10.58,10.58,0,0,0,186.92,43a10.08,10.08,0,0,0,7.84-3.15,11.22,11.22,0,0,0,3-8Z" transform="translate(0 0)" fill="#34364e"/><path d="M261.56,15.48h-11a15.8,15.8,0,0,0-5.36-4.61,16.33,16.33,0,0,0-6.77-2h-.87A17.45,17.45,0,0,0,231.44,10a16.73,16.73,0,0,0-5.33,3.24A17.09,17.09,0,0,0,222.5,18a17.58,17.58,0,0,0-1.95,5.68c0,.35-.08.7-.1,1s0,.68,0,1,0,.64,0,1,.06.66.1,1a16.24,16.24,0,0,0,1.58,5.18,17.05,17.05,0,0,0,3.05,4.38,17.7,17.7,0,0,0,5.89,4.11,17.32,17.32,0,0,0,6.9,1.44h.67a16.17,16.17,0,0,0,8-2.65,15.91,15.91,0,0,0,5.76-6.26h-20.7V25.13H264V26.2a23.6,23.6,0,0,1-7.88,18.15,27.18,27.18,0,0,1-37.05-.1A23.91,23.91,0,0,1,211.24,26a24.6,24.6,0,0,1,7.84-18.5A25.87,25.87,0,0,1,237.57,0h.6a27.3,27.3,0,0,1,14,4.37,22.85,22.85,0,0,1,9.38,11.17Z" transform="translate(0 0)" fill="#34364e"/><path d="M269.13,13.27h8.1v3.35h.14a10.33,10.33,0,0,1,3.35-3.39,9,9,0,0,1,4.62-1.1l.67-.07V20.7c-.31.05-.62.08-.94.1a5.06,5.06,0,0,0-.93.17,13.06,13.06,0,0,0-1.88.57,6.47,6.47,0,0,0-1.68,1,5.77,5.77,0,0,0-2.11,3.12,15.8,15.8,0,0,0-.43,3.78v21h-8.91Z" transform="translate(0 0)" fill="#34364e"/><path d="M307.79,12.06A18.62,18.62,0,0,1,321.59,18a19.48,19.48,0,0,1,5.63,14,18.78,18.78,0,0,1-5.83,13.94,19.37,19.37,0,0,1-14,5.69,18.92,18.92,0,0,1-13.83-5.76A18.88,18.88,0,0,1,287.75,32a18.93,18.93,0,0,1,5.87-14.1,19.52,19.52,0,0,1,14.17-5.73Zm-1.21,8.81c-.27,0-.54.06-.8.1a12,12,0,0,0-3.29,1.21,10.91,10.91,0,0,0-2.74,2.07,10.06,10.06,0,0,0-2.31,3.52,11.34,11.34,0,0,0-.78,4.19,10.86,10.86,0,0,0,3.09,7.74A10.11,10.11,0,0,0,307.38,43a10.49,10.49,0,0,0,7.84-3.16,10.81,10.81,0,0,0,3.09-7.86,11,11,0,0,0-3.15-7.87,10.35,10.35,0,0,0-7.78-3.29A7,7,0,0,1,306.58,20.87Z" transform="translate(0 0)" fill="#34364e"/><path d="M365.27,13.27V50.38H357.1v-4H357a8.5,8.5,0,0,1-3.88,4,12.47,12.47,0,0,1-5.56,1.21,16.57,16.57,0,0,1-6.33-1.24,14.65,14.65,0,0,1-5.4-3.85,11.28,11.28,0,0,1-3-5.66,36.82,36.82,0,0,1-.54-6.54v-21h8.91V31.49c0,.58,0,1.17,0,1.78s.05,1.21.1,1.84.21,1.42.36,2.11a9.73,9.73,0,0,0,.64,1.91,7,7,0,0,0,2.61,2.81,7.18,7.18,0,0,0,3.76,1c3,0,5-1,6-3a16.72,16.72,0,0,0,1.67-6.54,5.86,5.86,0,0,0,.07-.94V13.27Z" transform="translate(0 0)" fill="#34364e"/><path d="M372.44,13.27h8.17v4.82h.14a13.07,13.07,0,0,1,5.12-4.49,15.48,15.48,0,0,1,6.8-1.47,18.44,18.44,0,0,1,7.34,1.4,17.79,17.79,0,0,1,6.13,4.63A17.78,17.78,0,0,1,410,24.39a21.36,21.36,0,0,1,1.31,7.5,20.12,20.12,0,0,1-5.23,13.8,17.06,17.06,0,0,1-13.4,5.9,15.47,15.47,0,0,1-6.26-1.21,12.56,12.56,0,0,1-4.92-4l-.14-.07V62.78h-8.91Zm11.49,10.78a10.84,10.84,0,0,0-3.11,7.84,12.06,12.06,0,0,0,.83,4.52,9.7,9.7,0,0,0,2.65,3.72,11,11,0,0,0,2.48,1.64,10.83,10.83,0,0,0,2.81,1,4.36,4.36,0,0,0,.91.16,8.77,8.77,0,0,0,.9,0,10.47,10.47,0,0,0,7.87-3.23,11,11,0,0,0,3.12-7.93,11,11,0,0,0-3.05-7.73,10,10,0,0,0-7.6-3.29A10.69,10.69,0,0,0,383.93,24.05Z" transform="translate(0 0)" fill="#34364e"/></g></svg>